# xmcd
#
# Track frame offsets:
# 150
# 11409
# 25626
# 46613
# 56861
# 71238
# 89246
# 98841
# 116521
# 132413
# 146315
# 167842
# 184314
# 199536
#
# Disc length: 2903 seconds
#
#
# Revision: 0
# Processed by: cddbd v1.5.1PL0 Copyright (c) Steve Scherf et al.
# Submitted via: FreeRIP 2.90 
#
DISCID=c20b550e
DTITLE=Vince Gill - The Key
DYEAR=1900
DGENRE=Country
TTITLE0=Don't come cryin' to me
TTITLE1=Don't come cryin' to me
TTITLE2=If you ever have forever in mind
TTITLE3=I never really knew you
TTITLE4=Kindly keep it Country
TTITLE5=All those years
TTITLE6=I'll take Texas
TTITLE7=My kind of Woman - My kind of Man
TTITLE8=There's not much love here anymore
TTITLE9=Let her in
TTITLE10=The hills of Caroline
TTITLE11=Live to tell it all
TTITLE12=What they all call love
TTITLE13=The key to life
EXTD=
EXTT0=
EXTT1=
EXTT2=
EXTT3=
EXTT4=
EXTT5=
EXTT6=
EXTT7=
EXTT8=
EXTT9=
EXTT10=
EXTT11=
EXTT12=
EXTT13=
PLAYORDER=
